<svg class="svg-icon" style="width: 1em;height: 1em;vertical-align: middle;fill: currentColor;overflow: hidden;" viewBox="0 0 1024 1024" version="1.1" xmlns="http://www.w3.org/2000/svg"><path d="M952.52 270.4c-13.2-16.6-37.4-19.2-54-6l-116.7 111.4-131.3-85.9-160.5-79.7c-5.1-2.5-10.6-4-16.2-4.7l0.3-0.7h-374c-21.2 0.7-37.8 18.5-37.1 39.7 0.7 21.2 18.5 37.8 39.7 37.1 0.9 0.1 1.8 0.1 2.8 0l286.7 25.1-71.7 179.7-85.5 200.4c-9.5 19-1.8 42.1 17.2 51.6s42.1 1.8 51.6-17.2l129.6-181.9-148 405.4c-7.9 19.7 1.7 42 21.4 49.9 18.8 7.5 40.3-0.9 49-19.2l181.9-387.2 98-189.4 129.5 56.7c13.8 8.2 31.2 7.1 43.8-2.9l137.6-128c16.5-13.4 19.2-37.6 5.9-54.2 0 0.1 0 0.1 0 0zM589.32 0c49.5 0 89.6 40.1 89.6 89.6s-40.1 89.6-89.6 89.6c-49.5 0-89.6-40.1-89.6-89.6S539.82 0 589.32 0" fill="#FFBA57" /><path d="M640.52 844.8c49.5 0 89.6 40.1 89.6 89.6 0 49.5-40.1 89.6-89.6 89.6-49.5 0-89.6-40.1-89.6-89.6 0-49.5 40.1-89.6 89.6-89.6" fill="#455A64" /><path d="M765.62 365.1l-115.2-75.3-160.4-79.7c-5.1-2.5-10.6-4-16.2-4.7 0.2-0.2 0.4-0.6 0.4-0.6h-153.2v95.7l71.1 6.3-71.5 179.6 217.1 101.8 98-189.4 92.8 40.6 37.1-74.3z" fill="#5EC08F" /><path d="M320.52 486.4l-67.5 158.1 77.6 38.8 102.6-144-112.7-52.9zM537.62 588.2l-104.1-48.9-59.7 163.5 92.3 39.6 71.5-154.2z" fill="#FF754C" /></svg>